Sprint_08550001_forces_filt100Hz.mot
version=1
nRows=38
nColumns=19
inDegrees=yes
endheader
time	R_ground_force_vx	R_ground_force_vy	R_ground_force_vz	R_ground_force_px	R_ground_force_py	R_ground_force_pz	R_ground_torque_x	R_ground_torque_y	R_ground_torque_z	L_ground_force_vx	L_ground_force_vy	L_ground_force_vz	L_ground_force_px	L_ground_force_py	L_ground_force_pz	L_ground_torque_x	L_ground_torque_y	L_ground_torque_z	
0.000000	  0.000000	  0.000000	  0.000000	  0.276506	  0.000000	 -0.249100	  0.000000	  0.000000	  0.000000	  0.000000	  0.000000	  0.000000	  1.143425	  0.000000	 -0.391260	  0.000000	  0.000000	  0.000000
0.000500	  0.000000	  0.000000	  0.000000	  0.274563	 -0.000000	 -0.248617	  0.000000	  0.000000	  0.000000	  0.000000	  0.000000	  0.000000	  1.146688	 -0.000000	 -0.391244	  0.000000	  0.000000	  0.000000
0.001000	  0.000000	  0.000000	  0.000000	  0.272621	 -0.000000	 -0.248134	  0.000000	  0.000000	  0.000000	  0.000000	  0.000000	  0.000000	  1.149952	 -0.000000	 -0.391227	  0.000000	  0.000000	  0.000000
0.001500	  0.000000	  0.000000	  0.000000	  0.270678	 -0.000000	 -0.247651	  0.000000	  0.000000	  0.000000	  0.000000	  0.000000	  0.000000	  1.153215	 -0.000000	 -0.391210	  0.000000	  0.000000	  0.000000
0.002000	  0.000000	  0.000000	  0.000000	  0.268735	 -0.000000	 -0.247169	  0.000000	  0.000000	  0.000000	  0.000000	  0.000000	  0.000000	  1.156479	 -0.000000	 -0.391194	  0.000000	  0.000000	  0.000000
0.002500	  0.000000	  0.000000	  0.000000	  0.266792	  0.000000	 -0.246686	  0.000000	  0.000000	  0.000000	  0.000000	  0.000000	  0.000000	  1.159742	  0.000000	 -0.391177	  0.000000	  0.000000	  0.000000
0.003000	  0.000000	  0.000000	  0.000000	  0.264849	  0.000000	 -0.246203	  0.000000	  0.000000	  0.000000	  0.000000	  0.000000	  0.000000	  1.163006	  0.000000	 -0.391160	  0.000000	  0.000000	  0.000000
0.003500	  0.000000	  0.000000	  0.000000	  0.262906	  0.000000	 -0.245720	  0.000000	  0.000000	  0.000000	  0.000000	  0.000000	  0.000000	  1.166269	  0.000000	 -0.391144	  0.000000	  0.000000	  0.000000
0.004000	  0.000000	  0.000000	  0.000000	  0.260964	  0.000000	 -0.245238	  0.000000	  0.000000	  0.000000	  0.000000	  0.000000	  0.000000	  1.169532	  0.000000	 -0.391127	  0.000000	  0.000000	  0.000000
0.004500	  0.000000	  0.000000	  0.000000	  0.259021	  0.000000	 -0.244755	  0.000000	  0.000000	  0.000000	  0.000000	  0.000000	  0.000000	  1.172796	  0.000000	 -0.391110	  0.000000	  0.000000	  0.000000
0.005000	  0.000000	  0.000000	  0.000000	  0.257078	  0.000000	 -0.244272	  0.000000	  0.000000	  0.000000	  0.000000	  0.000000	  0.000000	  1.176059	  0.000000	 -0.391094	  0.000000	  0.000000	  0.000000
0.005500	  0.000000	  0.000000	  0.000000	  0.254810	  0.000000	 -0.243924	  0.000000	  0.000000	  0.000000	  0.000000	  0.000000	  0.000000	  1.179243	  0.000000	 -0.391134	  0.000000	  0.000000	  0.000000
0.006000	  0.000000	  0.000000	  0.000000	  0.252543	  0.000000	 -0.243576	  0.000000	  0.000000	  0.000000	  0.000000	  0.000000	  0.000000	  1.182427	  0.000000	 -0.391174	  0.000000	  0.000000	  0.000000
0.006500	  0.000000	  0.000000	  0.000000	  0.250275	  0.000000	 -0.243228	  0.000000	  0.000000	  0.000000	  0.000000	  0.000000	  0.000000	  1.185611	  0.000000	 -0.391214	  0.000000	  0.000000	  0.000000
0.007000	  0.000000	  0.000000	  0.000000	  0.248007	  0.000000	 -0.242880	  0.000000	  0.000000	  0.000000	  0.000000	  0.000000	  0.000000	  1.188795	  0.000000	 -0.391255	  0.000000	  0.000000	  0.000000
0.007500	  0.000000	  0.000000	  0.000000	  0.245740	  0.000000	 -0.242532	  0.000000	  0.000000	  0.000000	  0.000000	  0.000000	  0.000000	  1.191979	  0.000000	 -0.391295	  0.000000	  0.000000	  0.000000
0.008000	  0.000000	  0.000000	  0.000000	  0.243472	  0.000000	 -0.242184	  0.000000	  0.000000	  0.000000	  0.000000	  0.000000	  0.000000	  1.195163	  0.000000	 -0.391335	  0.000000	  0.000000	  0.000000
0.008500	  0.000000	  0.000000	  0.000000	  0.241204	  0.000000	 -0.241836	  0.000000	  0.000000	  0.000000	  0.000000	  0.000000	  0.000000	  1.198347	  0.000000	 -0.391375	  0.000000	  0.000000	  0.000000
0.009000	  0.000000	  0.000000	  0.000000	  0.238937	  0.000000	 -0.241488	  0.000000	  0.000000	  0.000000	  0.000000	  0.000000	  0.000000	  1.201531	  0.000000	 -0.391416	  0.000000	  0.000000	  0.000000
0.009500	  0.000000	  0.000000	  0.000000	  0.236669	  0.000000	 -0.241140	  0.000000	  0.000000	  0.000000	  0.000000	  0.000000	  0.000000	  1.204715	  0.000000	 -0.391456	  0.000000	  0.000000	  0.000000
0.010000	  0.000000	  0.000000	  0.000000	  0.234401	  0.000000	 -0.240792	  0.000000	  0.000000	  0.000000	  0.000000	  0.000000	  0.000000	  1.207899	  0.000000	 -0.391496	  0.000000	  0.000000	  0.000000
0.010500	  0.000000	  0.000000	  0.000000	  0.232388	  0.000000	 -0.240498	  0.000000	  0.000000	  0.000000	  0.000000	  0.000000	  0.000000	  1.210999	  0.000000	 -0.391599	  0.000000	  0.000000	  0.000000
0.011000	  0.000000	  0.000000	  0.000000	  0.230374	  0.000000	 -0.240205	  0.000000	  0.000000	  0.000000	  0.000000	  0.000000	  0.000000	  1.214099	  0.000000	 -0.391701	  0.000000	  0.000000	  0.000000
0.011500	  0.000000	  0.000000	  0.000000	  0.228360	  0.000000	 -0.239912	  0.000000	  0.000000	  0.000000	  0.000000	  0.000000	  0.000000	  1.217199	  0.000000	 -0.391804	  0.000000	  0.000000	  0.000000
0.012000	  0.000000	  0.000000	  0.000000	  0.226346	  0.000000	 -0.239619	  0.000000	  0.000000	  0.000000	  0.000000	  0.000000	  0.000000	  1.220299	  0.000000	 -0.391906	  0.000000	  0.000000	  0.000000
0.012500	  0.000000	  0.000000	  0.000000	  0.224332	  0.000000	 -0.239326	  0.000000	  0.000000	  0.000000	  0.000000	  0.000000	  0.000000	  1.223399	  0.000000	 -0.392009	  0.000000	  0.000000	  0.000000
0.013000	  0.000000	  0.000000	  0.000000	  0.222318	  0.000000	 -0.239032	  0.000000	  0.000000	  0.000000	  0.000000	  0.000000	  0.000000	  1.226499	  0.000000	 -0.392111	  0.000000	  0.000000	  0.000000
0.013500	  0.000000	  0.000000	  0.000000	  0.220304	  0.000000	 -0.238739	  0.000000	  0.000000	  0.000000	  0.000000	  0.000000	  0.000000	  1.229599	  0.000000	 -0.392214	  0.000000	  0.000000	  0.000000
0.014000	  0.000000	  0.000000	  0.000000	  0.218290	  0.000000	 -0.238446	  0.000000	  0.000000	  0.000000	  0.000000	  0.000000	  0.000000	  1.232699	  0.000000	 -0.392317	  0.000000	  0.000000	  0.000000
0.014500	  0.000000	  0.000000	  0.000000	  0.216276	  0.000000	 -0.238153	  0.000000	  0.000000	  0.000000	  0.000000	  0.000000	  0.000000	  1.235799	  0.000000	 -0.392419	  0.000000	  0.000000	  0.000000
0.015000	  0.000000	  0.000000	  0.000000	  0.214263	  0.000000	 -0.237860	  0.000000	  0.000000	  0.000000	  0.000000	  0.000000	  0.000000	  1.238900	  0.000000	 -0.392522	  0.000000	  0.000000	  0.000000
0.015500	  0.000000	  0.000000	  0.000000	  0.212599	  0.000000	 -0.237469	  0.000000	  0.000000	  0.000000	  0.000000	  0.000000	  0.000000	  1.241838	  0.000000	 -0.392644	  0.000000	  0.000000	  0.000000
0.016000	  0.000000	  0.000000	  0.000000	  0.210935	  0.000000	 -0.237078	  0.000000	  0.000000	  0.000000	  0.000000	  0.000000	  0.000000	  1.244776	  0.000000	 -0.392767	  0.000000	  0.000000	  0.000000
0.016500	  0.000000	  0.000000	  0.000000	  0.209271	  0.000000	 -0.236687	  0.000000	  0.000000	  0.000000	  0.000000	  0.000000	  0.000000	  1.247714	  0.000000	 -0.392890	  0.000000	  0.000000	  0.000000
0.017000	  0.000000	  0.000000	  0.000000	  0.207607	  0.000000	 -0.236296	  0.000000	  0.000000	  0.000000	  0.000000	  0.000000	  0.000000	  1.250653	  0.000000	 -0.393013	  0.000000	  0.000000	  0.000000
0.017500	  0.000000	  0.000000	  0.000000	  0.205943	  0.000000	 -0.235905	  0.000000	  0.000000	  0.000000	  0.000000	  0.000000	  0.000000	  1.253591	  0.000000	 -0.393136	  0.000000	  0.000000	  0.000000
0.018000	  0.000000	  0.000000	  0.000000	  0.204279	  0.000000	 -0.235515	  0.000000	  0.000000	  0.000000	  0.000000	  0.000000	  0.000000	  1.256529	  0.000000	 -0.393259	  0.000000	  0.000000	  0.000000
0.018500	  0.000000	  0.000000	  0.000000	  0.202615	  0.000000	 -0.235124	  0.000000	  0.000000	  0.000000	  0.000000	  0.000000	  0.000000	  1.259467	  0.000000	 -0.393382	  0.000000	  0.000000	  0.000000
